<?xml version="1.0" encoding="UTF-8" standalone="no"?>
<svg
   version="1.1"
   width="34.705761mm"
   height="18.076334mm"
   viewBox="0 0 34.705761 18.076334"
   id="svg92"
   xmlns="http://www.w3.org/2000/svg"
   xmlns:svg="http://www.w3.org/2000/svg"
   xmlns:rdf="http://www.w3.org/1999/02/22-rdf-syntax-ns#"
   xmlns:cc="http://creativecommons.org/ns#"
   xmlns:dc="http://purl.org/dc/elements/1.1/">
  <defs
     id="defs92" />
  <title
     id="title1">SVG Image created as pull-up-resistor.svg date 2025/12/25 10:30:00 </title>
  <desc
     id="desc1">Image generated by Eeschema-SVG </desc>
  <g
     style="fill:#c4a7e7;fill-opacity:1;stroke:#c4a7e7;stroke-linecap:round;stroke-linejoin:round;stroke-opacity:1"
     id="g5"
     transform="translate(-102.58824,-86.7918)">
    <path
       style="fill:none;stroke:#c4a7e7;stroke-width:0.1524;stroke-linecap:round;stroke-linejoin:round;stroke-opacity:1"
       d="M 116.84,90.424 V 90.17"
       id="path1" />
    <path
       style="fill:none;stroke:#c4a7e7;stroke-width:0.1524;stroke-linecap:round;stroke-linejoin:round;stroke-opacity:1"
       d="m 116.84,90.424 1.016,0.381 -1.016,0.381 -1.016,0.381 1.016,0.381"
       id="path2" />
    <path
       style="fill:none;stroke:#c4a7e7;stroke-width:0.1524;stroke-linecap:round;stroke-linejoin:round;stroke-opacity:1"
       d="m 116.84,91.948 1.016,0.381 -1.016,0.381 -1.016,0.381 1.016,0.381"
       id="path3" />
    <path
       style="fill:none;stroke:#c4a7e7;stroke-width:0.1524;stroke-linecap:round;stroke-linejoin:round;stroke-opacity:1"
       d="m 116.84,93.472 1.016,0.381 -1.016,0.381 -1.016,0.381 1.016,0.381"
       id="path4" />
    <path
       style="fill:none;stroke:#c4a7e7;stroke-width:0.1524;stroke-linecap:round;stroke-linejoin:round;stroke-opacity:1"
       d="M 116.84,94.996 V 95.25"
       id="path5" />
  </g>
  <g
     style="fill:none;stroke:#c4a7e7;stroke-width:0.1524;stroke-linecap:round;stroke-linejoin:round;stroke-opacity:1"
     id="g19"
     transform="translate(-102.58824,-86.7918)">
    <path
       d="M 116.84,90.17 V 88.9"
       id="path6" />
    <path
       d="m 116.84,95.25 v 1.27"
       id="path7" />
    <text
       x="123.0359"
       y="93.345001"
       textLength="8.3278999"
       font-size="1.6933px"
       lengthAdjust="spacingAndGlyphs"
       text-anchor="middle"
       opacity="0"
       stroke-opacity="0"
       id="text7">Resistor</text>
    <g
       class="stroked-text"
       id="g16">
      <desc
         id="desc7">Resistor</desc>
      <path
         style="fill:#c4a7e7;fill-opacity:1;fill-rule:evenodd;stroke:none"
         d="m 119.5128,92.0131 0.0796,0.0193 0.066,0.0302 0.0546,0.0407 0.0445,0.0517 0.0324,0.0617 0.0204,0.0737 0.007,0.0885 -0.007,0.087 -0.0183,0.0737 -0.0291,0.0626 -0.0409,0.0548 -0.0513,0.0441 -0.063,0.0341 0.2542,0.5019 h -0.2082 l -0.223,-0.4666 h -0.0147 -0.243 v 0.4666 h -0.1804 v -0.6316 h 0.1804 0.243 l 0.0667,-0.0067 0.0526,-0.0186 0.0416,-0.0294 0.0312,-0.0399 0.0195,-0.0503 0.007,-0.0635 -0.007,-0.0702 -0.0196,-0.0545 -0.031,-0.0425 -0.0419,-0.0317 -0.0526,-0.0198 -0.0664,-0.0072 h -0.243 v 0.4343 h -0.1804 v -0.5993 h 0.4234 z"
         id="path8" />
      <path
         style="fill:#c4a7e7;fill-opacity:1;fill-rule:evenodd;stroke:none"
         d="m 120.5292,92.3093 0.077,0.022 0.0647,0.0349 0.0545,0.0481 0.0423,0.0586 0.0318,0.0722 0.0205,0.0885 0.007,0.1084 -0.005,0.1179 h -0.6212 l 0.0237,0.0721 0.0364,0.0572 0.0492,0.0448 0.0594,0.0316 0.0735,0.0202 0.0909,0.0073 0.1128,-0.0065 0.1128,-0.0177 0.0225,0.1612 -0.0801,0.0131 -0.0691,0.0069 -0.1197,0.0043 -0.1175,-0.0087 -0.0974,-0.0244 -0.081,-0.0384 -0.0672,-0.0519 -0.054,-0.0654 -0.0397,-0.0789 -0.0252,-0.0953 -0.009,-0.1151 0.004,-0.0566 h 0.1679 0.4667 l -0.007,-0.0808 -0.0202,-0.0621 -0.0314,-0.0476 -0.0433,-0.0363 -0.0534,-0.0222 -0.0664,-0.0079 -0.0683,0.0079 -0.0557,0.0224 -0.046,0.0366 -0.035,0.0481 -0.0253,0.0621 -0.0143,0.0798 h -0.1679 l 0.004,-0.0566 0.0216,-0.094 0.0338,-0.0781 0.0453,-0.0647 0.0583,-0.0535 0.0689,-0.0386 0.0816,-0.0241 0.0974,-0.0086 z"
         id="path9" />
      <path
         style="fill:#c4a7e7;fill-opacity:1;fill-rule:evenodd;stroke:none"
         d="m 121.4033,93.2544 -0.1783,-0.0061 -0.0724,-0.0082 -0.0633,-0.0117 0.0208,-0.1668 0.1609,0.0209 0.1323,0.0069 0.0941,-0.0038 0.0652,-0.0098 0.0433,-0.0136 0.0361,-0.0228 0.02,-0.0285 0.007,-0.0358 -0.006,-0.0376 -0.0161,-0.0243 -0.0261,-0.0171 -0.042,-0.0145 -0.2117,-0.0537 -0.09,-0.0275 -0.0649,-0.0288 -0.0451,-0.0294 -0.0344,-0.0383 -0.0216,-0.0504 -0.008,-0.0663 0.008,-0.0728 0.022,-0.0588 0.0355,-0.0478 0.0504,-0.0387 0.0574,-0.0263 0.0779,-0.0213 0.1034,-0.0145 0.1349,-0.0055 0.1251,0.0044 0.1178,0.013 -0.0191,0.1598 -0.1241,-0.0095 -0.1049,-0.0027 -0.1042,0.0038 -0.072,0.0095 -0.0476,0.0132 -0.0403,0.0227 -0.0218,0.0281 -0.007,0.0353 0.007,0.035 0.0212,0.0226 0.0328,0.0157 0.0548,0.0168 0.17,0.0415 0.0954,0.0283 0.0688,0.0313 0.048,0.033 0.0363,0.043 0.0227,0.055 0.008,0.0708 -0.007,0.072 -0.0209,0.058 -0.0333,0.0472 -0.0469,0.038 -0.054,0.0263 -0.0728,0.0211 -0.0961,0.0144 z"
         id="path10" />
      <path
         style="fill:#c4a7e7;fill-opacity:1;fill-rule:evenodd;stroke:none"
         d="m 122.1337,93.2371 v -0.1613 h 0.3505 v -0.5956 h -0.2984 v -0.1613 h 0.4824 v 0.7569 h 0.2828 v 0.1613 z"
         id="path11" />
      <path
         style="fill:#c4a7e7;fill-opacity:1;fill-rule:evenodd;stroke:none"
         d="m 122.5701,92.1762 -0.0337,-0.0042 -0.0299,-0.0125 -0.0271,-0.0211 -0.021,-0.027 -0.0124,-0.0299 -0.004,-0.0337 0.004,-0.0343 0.0124,-0.03 0.021,-0.0268 0.0416,-0.028 0.0491,-0.0093 0.0343,0.0042 0.03,0.0123 0.0268,0.0208 0.0208,0.0267 0.0123,0.03 0.004,0.0344 -0.009,0.0491 -0.028,0.0415 -0.0268,0.0211 -0.03,0.0124 z"
         id="path12" />
      <path
         style="fill:#c4a7e7;fill-opacity:1;fill-rule:evenodd;stroke:none"
         d="m 123.4853,93.2544 -0.1783,-0.0061 -0.0724,-0.0082 -0.0634,-0.0117 0.0209,-0.1668 0.1609,0.0209 0.1323,0.0069 0.0941,-0.0038 0.0651,-0.0098 0.0434,-0.0136 0.036,-0.0228 0.0201,-0.0285 0.007,-0.0358 -0.006,-0.0376 -0.0162,-0.0243 -0.026,-0.0171 -0.042,-0.0145 -0.2117,-0.0537 -0.09,-0.0275 -0.0649,-0.0288 -0.0451,-0.0294 -0.0345,-0.0383 -0.0215,-0.0504 -0.008,-0.0663 0.008,-0.0728 0.022,-0.0588 0.0355,-0.0478 0.0504,-0.0387 0.0574,-0.0263 0.0779,-0.0213 0.1034,-0.0145 0.1348,-0.0055 0.1252,0.0044 0.1178,0.013 -0.0192,0.1598 -0.124,-0.0095 -0.105,-0.0027 -0.1041,0.0038 -0.072,0.0095 -0.0477,0.0132 -0.0402,0.0227 -0.0219,0.0281 -0.007,0.0353 0.007,0.035 0.0212,0.0226 0.0328,0.0157 0.0548,0.0168 0.17,0.0415 0.0953,0.0283 0.0689,0.0313 0.0479,0.033 0.0364,0.043 0.0227,0.055 0.008,0.0708 -0.007,0.072 -0.0208,0.058 -0.0333,0.0472 -0.0469,0.038 -0.054,0.0263 -0.0728,0.0211 -0.0961,0.0144 z"
         id="path13" />
      <path
         style="fill:#c4a7e7;fill-opacity:1;fill-rule:evenodd;stroke:none"
         d="m 124.7641,93.2544 -0.1071,-0.0066 -0.0831,-0.018 -0.0638,-0.0271 -0.0485,-0.0349 -0.0383,-0.0459 -0.029,-0.0593 -0.0189,-0.0757 -0.007,-0.0962 v -0.4105 h -0.2308 v -0.1613 h 0.2308 V 92.041 h 0.184 v 0.2779 h 0.4181 v 0.1613 h -0.4181 v 0.4015 l 0.007,0.0707 0.0183,0.0512 0.0281,0.0365 0.0388,0.0254 0.0565,0.0173 0.0803,0.0066 0.092,-0.0047 0.1111,-0.0127 0.0208,0.1616 -0.1184,0.0156 z"
         id="path14" />
      <path
         style="fill:#c4a7e7;fill-opacity:1;fill-rule:evenodd;stroke:none"
         d="m 125.7327,92.31 0.0791,0.0239 0.0669,0.0385 0.0569,0.0534 0.0438,0.0644 0.0329,0.0781 0.0211,0.0948 0.008,0.1149 -0.008,0.1143 -0.0211,0.0946 -0.0328,0.0782 -0.0439,0.0646 -0.0569,0.0537 -0.067,0.0385 -0.0791,0.024 -0.0941,0.0085 -0.0938,-0.0084 -0.0789,-0.024 -0.067,-0.0386 -0.0571,-0.0537 -0.044,-0.0646 -0.033,-0.0782 -0.0212,-0.0946 -0.008,-0.1143 h 0.1909 l 0.007,0.0981 0.0191,0.0751 0.0288,0.0569 0.0308,0.0359 0.0356,0.0249 0.0414,0.0152 0.0489,0.0053 0.0488,-0.0053 0.0414,-0.0152 0.0355,-0.0249 0.0308,-0.0359 0.0289,-0.0569 0.0191,-0.0751 0.007,-0.0981 -0.007,-0.0987 -0.0192,-0.0752 -0.0288,-0.0567 -0.0307,-0.0356 -0.0356,-0.0248 -0.0414,-0.0152 -0.0488,-0.0053 -0.0489,0.0053 -0.0414,0.0152 -0.0356,0.0248 -0.0308,0.0356 -0.0288,0.0567 -0.0191,0.0752 -0.007,0.0987 h -0.1909 l 0.008,-0.1148 0.0212,-0.0948 0.033,-0.0782 0.044,-0.0644 0.0571,-0.0535 0.067,-0.0384 0.0789,-0.0239 0.0938,-0.0085 z"
         id="path15" />
      <path
         style="fill:#c4a7e7;fill-opacity:1;fill-rule:evenodd;stroke:none"
         d="m 126.617,92.8421 v 0.2337 h 0.2256 v 0.1613 h -0.6143 v -0.1613 h 0.2047 v -0.5956 h -0.17 v -0.1613 h 0.3193 l 0.0312,0.236 h 0.0208 l 0.0128,-0.0828 0.0247,-0.0623 0.035,-0.0463 0.0459,-0.0332 0.059,-0.0211 0.076,-0.0077 0.0709,0.0059 0.0561,0.0163 0.0445,0.0253 0.0349,0.0342 0.0255,0.0416 0.0202,0.0554 0.0135,0.0727 0.005,0.0941 h -0.1821 l -0.004,-0.0671 -0.0106,-0.0465 -0.0152,-0.0313 -0.0232,-0.0239 -0.0313,-0.0149 -0.0422,-0.0054 -0.0559,0.0065 -0.0466,0.0185 -0.0392,0.0306 -0.0331,0.0443 -0.03,0.0693 -0.0202,0.0927 z"
         id="path16" />
    </g>
    <path
       style="fill:none;stroke:#c4a7e7;stroke-width:0.1524;stroke-linecap:round;stroke-linejoin:round;stroke-opacity:1"
       d="m 118.11,86.868 1.27,0.762"
       id="path17" />
    <path
       style="fill:none;stroke:#c4a7e7;stroke-width:0.1524;stroke-linecap:round;stroke-linejoin:round;stroke-opacity:1"
       d="m 119.38,87.63 -1.27,0.762"
       id="path18" />
    <path
       style="fill:none;stroke:#c4a7e7;stroke-width:0.1524;stroke-linecap:round;stroke-linejoin:round;stroke-opacity:1"
       d="m 116.84,87.63 h 2.54"
       id="path19" />
  </g>
  <g
     style="fill:none;stroke:#c4a7e7;stroke-width:0.1524;stroke-linecap:round;stroke-linejoin:round;stroke-opacity:1"
     id="g27"
     transform="translate(-102.58824,-86.7918)">
    <path
       d="m 116.84,87.63 v 0"
       id="path20" />
    <text
       x="122.2114"
       y="88.2649"
       textLength="3.1229"
       font-size="1.6933px"
       lengthAdjust="spacingAndGlyphs"
       text-anchor="middle"
       opacity="0"
       stroke-opacity="0"
       id="text20">VCC</text>
    <g
       class="stroked-text"
       id="g23">
      <desc
         id="desc20">VCC</desc>
      <path
         style="fill:#c4a7e7;fill-opacity:1;fill-rule:evenodd;stroke:none"
         d="m 121.036,88.157 -0.347,-1.2309 h 0.1857 l 0.288,1.0844 h 0.0156 l 0.288,-1.0844 h 0.1857 l -0.347,1.2309 z"
         id="path21" />
      <path
         style="fill:#c4a7e7;fill-opacity:1;fill-rule:evenodd;stroke:none"
         d="m 122.3399,88.1743 -0.1268,-0.0087 -0.1057,-0.0244 -0.0881,-0.0382 -0.0735,-0.0514 -0.0609,-0.0651 -0.0491,-0.0805 -0.0374,-0.0988 -0.0241,-0.1206 -0.009,-0.1468 0.007,-0.1232 0.0189,-0.1059 0.0298,-0.0911 0.0398,-0.0784 0.0496,-0.0673 0.0612,-0.0582 0.0699,-0.0455 0.08,-0.0333 0.0918,-0.0208 0.1058,-0.0073 0.0842,0.0048 0.0735,0.0138 0.0643,0.0218 0.0591,0.0319 0.0453,0.0384 0.0336,0.045 -0.1284,0.1275 -0.0446,-0.0525 -0.0548,-0.0386 -0.0625,-0.024 -0.068,-0.0081 -0.0814,0.0079 -0.0706,0.0227 -0.0619,0.0371 -0.0547,0.0527 -0.0419,0.0622 -0.0315,0.0758 -0.0203,0.0921 -0.007,0.1118 0.008,0.1255 0.0224,0.1002 0.0342,0.0796 0.0449,0.0627 0.0557,0.0486 0.0681,0.0357 0.0832,0.0227 0.1016,0.0082 0.0828,-0.0057 0.0825,-0.0172 0.0828,-0.0292 0.0399,0.153 -0.1021,0.0327 -0.1055,0.0198 z"
         id="path22" />
      <path
         style="fill:#c4a7e7;fill-opacity:1;fill-rule:evenodd;stroke:none"
         d="m 123.3808,88.1743 -0.1267,-0.0087 -0.1057,-0.0244 -0.0881,-0.0382 -0.0735,-0.0514 -0.0609,-0.0651 -0.0492,-0.0805 -0.0373,-0.0988 -0.0241,-0.1206 -0.009,-0.1468 0.007,-0.1232 0.019,-0.1059 0.0298,-0.0911 0.0398,-0.0784 0.0496,-0.0673 0.0612,-0.0582 0.0699,-0.0455 0.08,-0.0333 0.0918,-0.0208 0.1058,-0.0073 0.0842,0.0048 0.0735,0.0138 0.0643,0.0218 0.0591,0.0319 0.0453,0.0384 0.0336,0.045 -0.1284,0.1275 -0.0446,-0.0525 -0.0548,-0.0386 -0.0625,-0.024 -0.068,-0.0081 -0.0814,0.0079 -0.0706,0.0227 -0.0619,0.0371 -0.0547,0.0527 -0.0419,0.0622 -0.0315,0.0758 -0.0203,0.0921 -0.007,0.1118 0.008,0.1255 0.0224,0.1002 0.0342,0.0796 0.0448,0.0627 0.0558,0.0486 0.0681,0.0357 0.0831,0.0227 0.1017,0.0082 0.0828,-0.0057 0.0825,-0.0172 0.0828,-0.0292 0.0399,0.153 -0.1021,0.0327 -0.1055,0.0198 z"
         id="path23" />
    </g>
    <path
       style="fill:none;stroke:#c4a7e7;stroke-width:0.1524;stroke-linecap:round;stroke-linejoin:round;stroke-opacity:1"
       d="m 103.505,100.965 h 1.27"
       id="path24" />
    <path
       style="fill:none;stroke:#c4a7e7;stroke-width:0.1524;stroke-linecap:round;stroke-linejoin:round;stroke-opacity:1"
       d="m 104.013,101.6 h 0.254"
       id="path25" />
    <path
       style="fill:none;stroke:#c4a7e7;stroke-width:0.1524;stroke-linecap:round;stroke-linejoin:round;stroke-opacity:1"
       d="M 104.14,100.33 V 99.06"
       id="path26" />
    <path
       style="fill:none;stroke:#c4a7e7;stroke-width:0.1524;stroke-linecap:round;stroke-linejoin:round;stroke-opacity:1"
       d="m 105.41,100.33 h -2.54"
       id="path27" />
  </g>
  <g
     style="fill:none;stroke:#c4a7e7;stroke-width:0.1524;stroke-linecap:round;stroke-linejoin:round;stroke-opacity:1"
     id="g32"
     transform="translate(-102.58824,-86.7918)">
    <path
       d="m 104.14,99.06 v 0"
       id="path28" />
    <text
       x="104.14"
       y="104.775"
       textLength="3.1229"
       font-size="1.6933px"
       lengthAdjust="spacingAndGlyphs"
       text-anchor="middle"
       opacity="0"
       stroke-opacity="0"
       id="text28">GND</text>
    <g
       class="stroked-text"
       id="g31">
      <desc
         id="desc28">GND</desc>
      <path
         style="fill:#c4a7e7;fill-opacity:1;fill-rule:evenodd;stroke:none"
         d="m 103.1876,104.6844 -0.1207,-0.008 -0.1008,-0.024 -0.0844,-0.0376 -0.0707,-0.0508 -0.0589,-0.0647 -0.0477,-0.0804 -0.0364,-0.099 -0.0237,-0.1214 -0.008,-0.1481 0.007,-0.1233 0.0188,-0.106 0.0294,-0.0911 0.0394,-0.0783 0.0489,-0.0672 0.0606,-0.0584 0.069,-0.0455 0.0786,-0.0332 0.09,-0.0208 0.1035,-0.007 0.0855,0.005 0.075,0.0137 0.066,0.0219 0.0609,0.0319 0.0471,0.0381 0.0351,0.0444 -0.1293,0.1284 -0.0452,-0.0525 -0.055,-0.0386 -0.0624,-0.024 -0.0673,-0.008 -0.0856,0.008 -0.0723,0.0231 -0.0616,0.0373 -0.0528,0.0523 -0.0403,0.0622 -0.0303,0.0757 -0.0196,0.092 -0.007,0.1116 0.008,0.1277 0.0214,0.1013 0.0324,0.0798 0.0423,0.0622 0.052,0.0477 0.0628,0.0347 0.0759,0.0219 0.0923,0.008 0.0768,-0.004 0.0672,-0.0112 v -0.2934 h -0.2447 v -0.165 h 0.4165 v 0.5819 l -0.128,0.0317 -0.0949,0.015 z"
         id="path29" />
      <path
         style="fill:#c4a7e7;fill-opacity:1;fill-rule:evenodd;stroke:none"
         d="m 104.2997,104.6671 -0.3539,-0.9371 h -0.0174 v 0.9371 h -0.1804 v -1.2309 h 0.2324 l 0.354,0.9369 h 0.0173 v -0.9369 h 0.1805 v 1.2309 z"
         id="path30" />
      <path
         style="fill:#c4a7e7;fill-opacity:1;fill-rule:evenodd;stroke:none"
         d="m 105.2045,103.4449 0.1035,0.0241 0.0864,0.0379 0.0722,0.051 0.0599,0.0648 0.0485,0.0802 0.0368,0.0986 0.0239,0.1206 0.009,0.1469 -0.008,0.1371 -0.0233,0.1129 -0.0361,0.0928 -0.0478,0.0761 -0.0593,0.0617 -0.0721,0.049 -0.0868,0.0366 -0.1044,0.0235 -0.1257,0.008 h -0.2985 v -0.1651 h 0.1804 0.1181 l 0.0931,-0.007 0.0761,-0.0205 0.0622,-0.0322 0.0508,-0.0437 0.0408,-0.0563 0.031,-0.0713 0.0203,-0.0896 0.007,-0.1121 -0.008,-0.123 -0.0209,-0.0978 -0.0318,-0.0772 -0.0415,-0.0604 -0.0512,-0.0463 -0.062,-0.0339 -0.0752,-0.0214 -0.0914,-0.008 h -0.1181 v 0.9008 h -0.1804 v -1.0658 h 0.2985 z"
         id="path31" />
    </g>
  </g>
  <g
     style="fill:none;stroke:#c4a7e7;stroke-width:0.1524;stroke-linecap:round;stroke-linejoin:round;stroke-opacity:1"
     id="g42"
     transform="translate(-102.58824,-86.7918)">
    <circle
       cx="107.95"
       cy="97.790001"
       r="1.27"
       id="circle32" />
    <path
       style="fill:none;stroke:#c4a7e7;stroke-width:0.1524;stroke-linecap:round;stroke-linejoin:round;stroke-opacity:1"
       d="m 107.95,97.79 5.08,-2.54"
       id="path32" />
    <circle
       cx="113.03"
       cy="97.790001"
       r="1.27"
       id="circle33" />
    <path
       d="m 107.95,97.79 h -2.54"
       id="path33" />
    <path
       d="m 113.03,97.79 h 2.54"
       id="path34" />
    <text
       x="110.49"
       y="94.361"
       textLength="6.2459002"
       font-size="1.6933px"
       lengthAdjust="spacingAndGlyphs"
       text-anchor="middle"
       opacity="0"
       stroke-opacity="0"
       id="text34">Switch</text>
    <g
       class="stroked-text"
       id="g41">
      <desc
         id="desc34">Switch</desc>
      <path
         style="fill:#c4a7e7;fill-opacity:1;fill-rule:evenodd;stroke:none"
         d="m 107.8451,94.2704 -0.1387,-0.0081 -0.1213,-0.0231 -0.1061,-0.0366 0.0225,-0.1755 0.0953,0.0364 0.089,0.0256 0.0887,0.0161 0.0844,0.0052 0.0832,-0.0064 0.0601,-0.0167 0.0427,-0.0246 0.0292,-0.032 0.0179,-0.0404 0.006,-0.0515 -0.007,-0.0512 -0.0203,-0.0427 -0.0342,-0.0364 -0.0513,-0.0308 -0.2134,-0.0971 -0.0808,-0.0428 -0.0635,-0.046 -0.0488,-0.0489 -0.0368,-0.057 -0.0225,-0.0659 -0.008,-0.0773 0.007,-0.0796 0.0189,-0.0667 0.0301,-0.056 0.0415,-0.0471 0.0507,-0.037 0.0612,-0.0276 0.0739,-0.0175 0.0892,-0.0063 0.0822,0.0043 0.0727,0.0124 0.0646,0.0198 0.0612,0.0285 0.0612,0.0394 0.0615,0.0513 -0.1214,0.1232 -0.0768,-0.0557 -0.066,-0.035 -0.0677,-0.0211 -0.0706,-0.0071 -0.0581,0.0054 -0.0452,0.0146 -0.0351,0.0229 -0.0264,0.0317 -0.0166,0.0413 -0.006,0.0539 0.008,0.0555 0.0237,0.042 0.0376,0.0342 0.057,0.033 0.1804,0.0848 0.0887,0.0474 0.0683,0.0483 0.0512,0.049 0.0388,0.0574 0.0239,0.068 0.008,0.0817 -0.007,0.0787 -0.0195,0.0652 -0.0309,0.0542 -0.0428,0.0451 -0.0563,0.0369 -0.0727,0.0286 -0.0926,0.0188 z"
         id="path35" />
      <path
         style="fill:#c4a7e7;fill-opacity:1;fill-rule:evenodd;stroke:none"
         d="m 109.0327,94.2531 -0.1076,-0.7305 h -0.0104 l -0.1076,0.7305 h -0.2342 l -0.1041,-0.9182 h 0.1735 l 0.0694,0.7808 h 0.0156 l 0.1084,-0.7808 h 0.1684 l 0.1084,0.7808 h 0.0156 l 0.0781,-0.7808 h 0.1822 l -0.1301,0.9182 z"
         id="path36" />
      <path
         style="fill:#c4a7e7;fill-opacity:1;fill-rule:evenodd;stroke:none"
         d="m 109.5878,94.2531 v -0.1613 h 0.3506 v -0.5956 h -0.2985 v -0.1613 h 0.4824 v 0.7569 h 0.2828 v 0.1613 z"
         id="path37" />
      <path
         style="fill:#c4a7e7;fill-opacity:1;fill-rule:evenodd;stroke:none"
         d="m 110.0242,93.1922 -0.0337,-0.0042 -0.0299,-0.0125 -0.0271,-0.0211 -0.021,-0.027 -0.0124,-0.0299 -0.004,-0.0337 0.004,-0.0343 0.0125,-0.03 0.0209,-0.0268 0.0416,-0.028 0.0491,-0.0093 0.0343,0.0042 0.0301,0.0123 0.0267,0.0208 0.0208,0.0267 0.0123,0.03 0.004,0.0344 -0.009,0.0491 -0.028,0.0415 -0.0268,0.0211 -0.03,0.0124 z"
         id="path38" />
      <path
         style="fill:#c4a7e7;fill-opacity:1;fill-rule:evenodd;stroke:none"
         d="m 111.1772,94.2704 -0.107,-0.0066 -0.0831,-0.018 -0.0639,-0.0271 -0.0485,-0.0349 -0.0383,-0.0459 -0.029,-0.0593 -0.0189,-0.0757 -0.007,-0.0962 v -0.4105 h -0.2308 v -0.1613 h 0.2308 V 93.057 h 0.184 v 0.2779 h 0.4181 v 0.1613 h -0.4181 v 0.4015 l 0.007,0.0707 0.0184,0.0512 0.028,0.0365 0.0389,0.0254 0.0565,0.0173 0.0803,0.0066 0.0919,-0.0047 0.1111,-0.0127 0.0208,0.1616 -0.1184,0.0156 z"
         id="path39" />
      <path
         style="fill:#c4a7e7;fill-opacity:1;fill-rule:evenodd;stroke:none"
         d="m 112.1401,94.2704 -0.1175,-0.0087 -0.0975,-0.0244 -0.0809,-0.0384 -0.0672,-0.0519 -0.054,-0.0654 -0.0397,-0.0789 -0.0252,-0.0953 -0.009,-0.1151 0.008,-0.1124 0.0239,-0.0937 0.0376,-0.0783 0.051,-0.0656 0.0641,-0.0527 0.0771,-0.0387 0.0927,-0.0246 0.1118,-0.0088 0.0885,0.006 0.0762,0.017 0.0656,0.027 0.0588,0.0386 0.045,0.0468 0.033,0.0557 -0.1415,0.1067 -0.0448,-0.0565 -0.055,-0.0415 -0.0633,-0.026 -0.0694,-0.0088 -0.0643,0.0054 -0.0539,0.0153 -0.0455,0.0242 -0.0384,0.0335 -0.0301,0.0408 -0.0224,0.0495 -0.0144,0.0599 -0.005,0.0725 0.006,0.0781 0.0167,0.0644 0.0263,0.053 0.0355,0.0437 0.0445,0.0347 0.0538,0.0257 0.0649,0.0163 0.0785,0.0059 0.1284,-0.006 0.1249,-0.0166 0.0208,0.1616 -0.0719,0.013 -0.0751,0.0078 z"
         id="path40" />
      <path
         style="fill:#c4a7e7;fill-opacity:1;fill-rule:evenodd;stroke:none"
         d="m 113.2834,94.2531 v -0.5974 l -0.005,-0.0568 -0.0148,-0.0439 -0.0232,-0.0339 -0.0317,-0.0257 -0.0397,-0.0159 -0.05,-0.0056 -0.0673,0.0075 -0.0519,0.0209 -0.04,0.0332 -0.0302,0.0474 -0.02,0.0653 -0.007,0.0889 v 0.516 h -0.1839 v -1.3004 h 0.1839 v 0.5488 h 0.0173 l 0.0112,-0.0566 0.0216,-0.044 0.0318,-0.0343 0.0434,-0.0258 0.058,-0.017 0.077,-0.0063 0.072,0.0061 0.0602,0.0172 0.0506,0.0274 0.0427,0.0377 0.0334,0.0461 0.0249,0.0555 0.0159,0.067 0.006,0.0808 v 0.5978 z"
         id="path41" />
    </g>
  </g>
  <g
     style="fill:none;stroke:#c4a7e7;stroke-width:0.1524;stroke-linecap:round;stroke-linejoin:round;stroke-opacity:1"
     id="g57"
     transform="translate(-102.58824,-86.7918)">
    <text
       x="120.8088"
       y="98.5158"
       textLength="15.6148"
       font-size="1.6933px"
       lengthAdjust="spacingAndGlyphs"
       text-anchor="start"
       opacity="0"
       stroke-opacity="0"
       id="text42">Voltage Reading</text>
    <g
       class="stroked-text"
       id="g56">
      <desc
         id="desc42">Voltage Reading</desc>
      <path
         style="fill:#c4a7e7;fill-opacity:1;fill-rule:evenodd;stroke:none"
         d="m 121.1948,98.4079 -0.347,-1.2309 h 0.1857 l 0.288,1.0844 h 0.0156 l 0.288,-1.0844 h 0.1857 l -0.347,1.2309 z"
         id="path42" />
      <path
         style="fill:#c4a7e7;fill-opacity:1;fill-rule:evenodd;stroke:none"
         d="m 122.4645,97.4808 0.0791,0.0239 0.067,0.0385 0.0568,0.0534 0.0439,0.0644 0.0328,0.0781 0.0212,0.0948 0.008,0.1149 -0.008,0.1143 -0.0211,0.0946 -0.0329,0.0782 -0.0439,0.0646 -0.0569,0.0537 -0.0669,0.0385 -0.0791,0.024 -0.0942,0.0085 -0.0937,-0.0084 -0.079,-0.024 -0.067,-0.0386 -0.0571,-0.0537 -0.044,-0.0646 -0.033,-0.0782 -0.0211,-0.0946 -0.008,-0.1143 h 0.1908 l 0.007,0.0981 0.0191,0.0751 0.0289,0.0569 0.0307,0.0359 0.0357,0.0249 0.0414,0.0152 0.0488,0.0053 0.0488,-0.0053 0.0414,-0.0152 0.0356,-0.0249 0.0307,-0.0359 0.0289,-0.0569 0.0191,-0.0751 0.007,-0.0981 -0.007,-0.0987 -0.0191,-0.0752 -0.0289,-0.0567 -0.0307,-0.0356 -0.0356,-0.0248 -0.0414,-0.0152 -0.0488,-0.0053 -0.0489,0.0053 -0.0414,0.0152 -0.0356,0.0248 -0.0307,0.0356 -0.0288,0.0567 -0.0192,0.0752 -0.007,0.0987 h -0.1908 l 0.008,-0.1148 0.0212,-0.0948 0.0329,-0.0782 0.044,-0.0644 0.0571,-0.0535 0.067,-0.0384 0.079,-0.0239 0.0937,-0.0085 z"
         id="path43" />
      <path
         style="fill:#c4a7e7;fill-opacity:1;fill-rule:evenodd;stroke:none"
         d="m 123.5483,98.4252 -0.0799,-0.0063 -0.063,-0.0175 -0.0494,-0.0268 -0.0384,-0.0361 -0.0285,-0.0444 -0.0223,-0.0585 -0.0148,-0.0763 -0.006,-0.0982 v -0.7923 h -0.2707 v -0.1613 h 0.4547 v 0.9447 l 0.004,0.0694 0.0101,0.0493 0.0206,0.0401 0.0336,0.0276 0.0457,0.0154 0.0735,0.0062 0.0762,-0.0072 0.1078,-0.0258 0.0208,0.1616 -0.135,0.0277 -0.0658,0.0065 z"
         id="path44" />
      <path
         style="fill:#c4a7e7;fill-opacity:1;fill-rule:evenodd;stroke:none"
         d="m 124.6189,98.4252 -0.107,-0.0066 -0.0831,-0.018 -0.0639,-0.0271 -0.0485,-0.0349 -0.0383,-0.0459 -0.029,-0.0593 -0.0189,-0.0757 -0.007,-0.0962 V 97.651 h -0.2308 v -0.1613 h 0.2308 v -0.2779 h 0.184 v 0.2779 h 0.4181 v 0.1613 h -0.4181 v 0.4015 l 0.007,0.0707 0.0184,0.0512 0.028,0.0365 0.0389,0.0254 0.0565,0.0173 0.0803,0.0066 0.0919,-0.0047 0.1111,-0.0127 0.0208,0.1616 -0.1184,0.0156 z"
         id="path45" />
      <path
         style="fill:#c4a7e7;fill-opacity:1;fill-rule:evenodd;stroke:none"
         d="m 125.3718,97.4923 0.1164,0.0086 0.0925,0.0204 0.0729,0.03 0.057,0.0384 0.0471,0.0506 0.0342,0.061 0.0216,0.0735 0.008,0.0891 v 0.3792 l 0.1561,0.0189 v 0.1459 l -0.2949,0.0086 -0.009,-0.203 h -0.0182 l -0.0152,0.0663 -0.0298,0.0519 -0.0449,0.0406 -0.0553,0.0283 -0.0682,0.0181 -0.0842,0.0065 -0.0937,-0.0086 -0.0728,-0.0235 -0.0565,-0.0366 -0.0338,-0.0369 -0.0244,-0.0437 -0.0153,-0.0518 -0.005,-0.0618 9e-4,-0.0087 h 0.1727 l 0.005,0.0376 0.0137,0.0299 0.0226,0.0242 0.0292,0.0171 0.0381,0.0111 0.0494,0.0041 0.0815,-0.0078 0.0621,-0.0211 0.0514,-0.0338 0.0349,-0.0401 0.0217,-0.0463 0.007,-0.0463 v -0.0629 l -0.0881,-0.0076 -0.089,-9e-4 -0.1,0.008 -0.0659,0.0204 -0.0415,0.0291 -0.0237,0.0372 -0.008,0.0481 h -0.1727 l 0.006,-0.0613 0.0206,-0.0588 0.0335,-0.0501 0.0476,-0.0428 0.0554,-0.0318 0.0679,-0.0242 0.0831,-0.0158 0.1011,-0.0056 0.0959,0.0039 0.0777,0.0108 v -0.042 l -0.008,-0.0565 -0.0215,-0.0429 -0.0354,-0.0326 -0.0452,-0.022 -0.0624,-0.0159 -0.0846,-0.0076 -0.2203,-0.006 0.0173,-0.1627 z"
         id="path46" />
      <path
         style="fill:#c4a7e7;fill-opacity:1;fill-rule:evenodd;stroke:none"
         d="m 126.5342,97.4783 0.0573,0.0165 0.0469,0.0261 0.0382,0.0365 0.0258,0.0445 0.014,0.0544 h 0.0113 l 0.0148,-0.1666 h 0.1666 v 0.8362 l -0.008,0.1242 -0.0228,0.0986 -0.0349,0.0779 -0.0459,0.0611 -0.0591,0.0484 -0.0763,0.0377 -0.0975,0.0262 -0.1237,0.0123 -0.2689,0.0087 -0.009,-0.1687 0.295,-0.0086 0.0702,-0.0074 0.0554,-0.0159 0.0436,-0.0231 0.0338,-0.0302 0.0335,-0.0519 0.0221,-0.0693 0.009,-0.0919 v -0.1127 h -0.0173 l -0.0124,0.0545 -0.0243,0.0445 -0.0367,0.0364 -0.0454,0.026 -0.056,0.0166 -0.069,0.0059 -0.0887,-0.0081 -0.0733,-0.023 -0.061,-0.0366 -0.0508,-0.0509 -0.0381,-0.0608 -0.0291,-0.0762 -0.0191,-0.0948 -0.007,-0.1173 h 0.1822 l 0.008,0.1079 0.0219,0.0781 0.0324,0.0555 0.042,0.0381 0.0532,0.0234 0.0678,0.0084 0.0672,-0.008 0.0522,-0.0222 0.0409,-0.0358 0.0313,-0.0517 0.0209,-0.0722 0.008,-0.0991 v -0.0623 l -0.008,-0.0991 -0.0209,-0.0722 -0.0313,-0.0517 -0.0409,-0.0358 -0.0522,-0.0222 -0.0672,-0.0079 -0.067,0.0085 -0.0528,0.0242 -0.0422,0.0396 -0.0328,0.0584 -0.0223,0.0829 -0.008,0.1152 h -0.1822 l 0.007,-0.1221 0.0191,-0.0984 0.0291,-0.0788 0.038,-0.0628 0.0511,-0.0531 0.0611,-0.0379 0.0732,-0.0237 0.0884,-0.0084 z"
         id="path47" />
      <path
         style="fill:#c4a7e7;fill-opacity:1;fill-rule:evenodd;stroke:none"
         d="m 127.6709,97.4801 0.0771,0.022 0.0647,0.0349 0.0545,0.0481 0.0423,0.0586 0.0318,0.0722 0.0204,0.0885 0.007,0.1084 -0.005,0.1179 h -0.6212 l 0.0238,0.0721 0.0363,0.0572 0.0493,0.0448 0.0594,0.0316 0.0735,0.0202 0.0909,0.0073 0.1128,-0.0065 0.1127,-0.0177 0.0226,0.1612 -0.0801,0.0131 -0.0692,0.0069 -0.1196,0.0043 -0.1175,-0.0087 -0.0975,-0.0244 -0.0809,-0.0384 -0.0672,-0.0519 -0.054,-0.0654 -0.0397,-0.0789 -0.0252,-0.0953 -0.009,-0.1151 0.004,-0.0566 h 0.1679 0.4668 l -0.007,-0.0808 -0.0203,-0.0621 -0.0313,-0.0476 -0.0434,-0.0363 -0.0533,-0.0222 -0.0664,-0.0079 -0.0683,0.0079 -0.0557,0.0224 -0.0461,0.0366 -0.035,0.0481 -0.0252,0.0621 -0.0144,0.0798 h -0.1679 l 0.004,-0.0566 0.0216,-0.094 0.0338,-0.0781 0.0453,-0.0647 0.0583,-0.0535 0.0689,-0.0386 0.0816,-0.0241 0.0974,-0.0086 z"
         id="path48" />
      <path
         style="fill:#c4a7e7;fill-opacity:1;fill-rule:evenodd;stroke:none"
         d="m 129.7776,97.1839 0.0795,0.0193 0.066,0.0302 0.0547,0.0407 0.0444,0.0517 0.0324,0.0617 0.0204,0.0737 0.007,0.0885 -0.007,0.087 -0.0183,0.0737 -0.029,0.0626 -0.041,0.0548 -0.0513,0.0441 -0.063,0.0341 0.2542,0.5019 h -0.2082 l -0.2229,-0.4666 h -0.0148 -0.2429 v 0.4666 h -0.1805 v -0.6316 h 0.1805 0.2429 l 0.0668,-0.0067 0.0526,-0.0186 0.0415,-0.0294 0.0313,-0.0399 0.0194,-0.0503 0.007,-0.0635 -0.007,-0.0702 -0.0196,-0.0545 -0.031,-0.0425 -0.0419,-0.0317 -0.0526,-0.0198 -0.0664,-0.0072 h -0.2429 v 0.4343 h -0.1805 V 97.177 h 0.4234 z"
         id="path49" />
      <path
         style="fill:#c4a7e7;fill-opacity:1;fill-rule:evenodd;stroke:none"
         d="m 130.7939,97.4801 0.0771,0.022 0.0647,0.0349 0.0544,0.0481 0.0424,0.0586 0.0317,0.0722 0.0205,0.0885 0.007,0.1084 -0.005,0.1179 h -0.6212 l 0.0238,0.0721 0.0363,0.0572 0.0492,0.0448 0.0595,0.0316 0.0734,0.0202 0.0909,0.0073 0.1129,-0.0065 0.1127,-0.0177 0.0226,0.1612 -0.0801,0.0131 -0.0692,0.0069 -0.1196,0.0043 -0.1176,-0.0087 -0.0974,-0.0244 -0.0809,-0.0384 -0.0672,-0.0519 -0.054,-0.0654 -0.0397,-0.0789 -0.0253,-0.0953 -0.009,-0.1151 0.004,-0.0566 h 0.1679 0.4667 l -0.007,-0.0808 -0.0202,-0.0621 -0.0314,-0.0476 -0.0433,-0.0363 -0.0533,-0.0222 -0.0664,-0.0079 -0.0683,0.0079 -0.0558,0.0224 -0.046,0.0366 -0.035,0.0481 -0.0253,0.0621 -0.0143,0.0798 h -0.1679 l 0.004,-0.0566 0.0216,-0.094 0.0337,-0.0781 0.0453,-0.0647 0.0583,-0.0535 0.0689,-0.0386 0.0817,-0.0241 0.0974,-0.0086 z"
         id="path50" />
      <path
         style="fill:#c4a7e7;fill-opacity:1;fill-rule:evenodd;stroke:none"
         d="m 131.6177,97.4923 0.1164,0.0086 0.0925,0.0204 0.073,0.03 0.0569,0.0384 0.0471,0.0506 0.0343,0.061 0.0215,0.0735 0.008,0.0891 v 0.3792 l 0.1562,0.0189 v 0.1459 l -0.295,0.0086 -0.009,-0.203 h -0.0182 l -0.0153,0.0663 -0.0298,0.0519 -0.0448,0.0406 -0.0553,0.0283 -0.0682,0.0181 -0.0843,0.0065 -0.0936,-0.0086 -0.0728,-0.0235 -0.0565,-0.0366 -0.0338,-0.0369 -0.0245,-0.0437 -0.0152,-0.0518 -0.005,-0.0618 9e-4,-0.0087 h 0.1726 l 0.005,0.0376 0.0137,0.0299 0.0226,0.0242 0.0292,0.0171 0.0381,0.0111 0.0494,0.0041 0.0814,-0.0078 0.0621,-0.0211 0.0515,-0.0338 0.0348,-0.0401 0.0218,-0.0463 0.007,-0.0463 v -0.0629 l -0.0881,-0.0076 -0.0889,-9e-4 -0.1001,0.008 -0.0658,0.0204 -0.0415,0.0291 -0.0237,0.0372 -0.008,0.0481 h -0.1726 l 0.006,-0.0613 0.0206,-0.0588 0.0334,-0.0501 0.0476,-0.0428 0.0554,-0.0318 0.068,-0.0242 0.0831,-0.0158 0.1011,-0.0056 0.0958,0.0039 0.0777,0.0108 v -0.042 l -0.008,-0.0565 -0.0215,-0.0429 -0.0354,-0.0326 -0.0452,-0.022 -0.0625,-0.0159 -0.0845,-0.0076 -0.2204,-0.006 0.0174,-0.1627 z"
         id="path51" />
      <path
         style="fill:#c4a7e7;fill-opacity:1;fill-rule:evenodd;stroke:none"
         d="m 133.155,98.4079 -0.1648,0.0086 -0.0183,-0.1752 h -0.0182 l -0.0124,0.0545 -0.0243,0.0445 -0.0366,0.0364 -0.0455,0.026 -0.0559,0.0166 -0.0691,0.0059 -0.0886,-0.0081 -0.0733,-0.023 -0.061,-0.0366 -0.0508,-0.0509 -0.0381,-0.0608 -0.0292,-0.0762 -0.019,-0.0948 -0.007,-0.1173 h 0.1821 l 0.008,0.1079 0.0218,0.0781 0.0324,0.0555 0.042,0.0381 0.0532,0.0234 0.0679,0.0084 0.0671,-0.008 0.0523,-0.0222 0.0409,-0.0358 0.0312,-0.0517 0.021,-0.0722 0.008,-0.0991 v -0.0623 l -0.008,-0.0991 -0.021,-0.0722 -0.0312,-0.0517 -0.0409,-0.0358 -0.0523,-0.0222 -0.0671,-0.0079 -0.067,0.0085 -0.0529,0.0242 -0.0421,0.0396 -0.0328,0.0584 -0.0223,0.0829 -0.008,0.1152 h -0.1821 l 0.007,-0.1221 0.0191,-0.0984 0.0292,-0.0788 0.038,-0.0628 0.0511,-0.0531 0.0611,-0.0379 0.0732,-0.0237 0.0883,-0.0084 0.0673,0.0059 0.0552,0.0166 0.0454,0.0261 0.0369,0.0363 0.0252,0.0445 0.0138,0.0546 h 0.0174 v -0.5488 h 0.1839 z"
         id="path52" />
      <path
         style="fill:#c4a7e7;fill-opacity:1;fill-rule:evenodd;stroke:none"
         d="M 133.4395,98.4079 V 98.2466 H 133.79 V 97.651 h -0.2985 v -0.1613 h 0.4824 v 0.7569 h 0.2828 v 0.1613 z"
         id="path53" />
      <path
         style="fill:#c4a7e7;fill-opacity:1;fill-rule:evenodd;stroke:none"
         d="m 133.8758,97.347 -0.0337,-0.0042 -0.0299,-0.0125 -0.027,-0.0211 -0.0211,-0.027 -0.0124,-0.0299 -0.004,-0.0337 0.004,-0.0343 0.0125,-0.03 0.021,-0.0268 0.0415,-0.028 0.0491,-0.0093 0.0344,0.0042 0.03,0.0123 0.0267,0.0208 0.0208,0.0267 0.0123,0.03 0.004,0.0344 -0.009,0.0491 -0.028,0.0415 -0.0268,0.0211 -0.03,0.0124 z"
         id="path54" />
      <path
         style="fill:#c4a7e7;fill-opacity:1;fill-rule:evenodd;stroke:none"
         d="m 135.0531,98.4079 v -0.5974 l -0.005,-0.0538 -0.0148,-0.0418 -0.0233,-0.0325 -0.0315,-0.0244 -0.0397,-0.0152 -0.0502,-0.0055 -0.0678,0.0075 -0.052,0.0204 -0.04,0.0325 -0.0299,0.0459 -0.0198,0.0629 -0.007,0.0854 v 0.516 h -0.1839 v -0.9182 h 0.1666 l 0.0147,0.1666 h 0.02 l 0.0112,-0.0566 0.0216,-0.044 0.0317,-0.0343 0.0434,-0.0258 0.0581,-0.017 0.0769,-0.0063 0.072,0.0061 0.0602,0.0172 0.0507,0.0274 0.0426,0.0377 0.0335,0.0461 0.0248,0.0555 0.0159,0.067 0.006,0.0808 v 0.5978 z"
         id="path55" />
      <path
         style="fill:#c4a7e7;fill-opacity:1;fill-rule:evenodd;stroke:none"
         d="m 135.9032,97.4783 0.0573,0.0165 0.0468,0.0261 0.0382,0.0365 0.0258,0.0445 0.0141,0.0544 h 0.0112 l 0.0148,-0.1666 h 0.1666 v 0.8362 l -0.008,0.1242 -0.0229,0.0986 -0.0349,0.0779 -0.0459,0.0611 -0.059,0.0484 -0.0763,0.0377 -0.0975,0.0262 -0.1237,0.0123 -0.269,0.0087 -0.009,-0.1687 0.295,-0.0086 0.0702,-0.0074 0.0554,-0.0159 0.0436,-0.0231 0.0339,-0.0302 0.0335,-0.0519 0.0221,-0.0693 0.009,-0.0919 v -0.1127 h -0.0174 l -0.0124,0.0545 -0.0243,0.0445 -0.0367,0.0364 -0.0454,0.026 -0.056,0.0166 -0.069,0.0059 -0.0886,-0.0081 -0.0733,-0.023 -0.061,-0.0366 -0.0509,-0.0509 -0.0381,-0.0608 -0.0291,-0.0762 -0.019,-0.0948 -0.007,-0.1173 h 0.1822 l 0.008,0.1079 0.0218,0.0781 0.0324,0.0555 0.042,0.0381 0.0532,0.0234 0.0679,0.0084 0.0671,-0.008 0.0522,-0.0222 0.041,-0.0358 0.0312,-0.0517 0.021,-0.0722 0.008,-0.0991 v -0.0623 l -0.008,-0.0991 -0.021,-0.0722 -0.0312,-0.0517 -0.041,-0.0358 -0.0522,-0.0222 -0.0671,-0.0079 -0.067,0.0085 -0.0529,0.0242 -0.0421,0.0396 -0.0328,0.0584 -0.0223,0.0829 -0.008,0.1152 h -0.1822 l 0.007,-0.1221 0.0191,-0.0984 0.0292,-0.0788 0.0379,-0.0628 0.0511,-0.0531 0.0612,-0.0379 0.0732,-0.0237 0.0883,-0.0084 z"
         id="path56" />
    </g>
    <path
       style="fill:none;stroke:#c4a7e7;stroke-width:0.1524;stroke-linecap:round;stroke-linejoin:round;stroke-opacity:1"
       d="m 119.38,97.79 1.1113,1.2704 h 16.7265 V 97.79 96.5196 h -16.7265 z"
       id="path57" />
  </g>
  <g
     style="fill:none;stroke:#c4a7e7;stroke-width:0.1524;stroke-linecap:round;stroke-linejoin:round;stroke-opacity:1"
     id="g73"
     transform="translate(-102.58824,-86.7918)">
    <path
       d="M 116.84,87.63 V 88.9"
       id="path58" />
    <path
       d="m 116.84,97.79 h 2.54"
       id="path59" />
    <path
       d="m 115.57,97.79 h 1.27"
       id="path60" />
    <path
       d="m 116.84,96.52 v 1.27"
       id="path61" />
    <path
       d="m 104.14,97.79 v 1.27"
       id="path62" />
    <path
       d="m 104.14,97.79 h 1.27"
       id="path63" />
    <text
       x="123.0359"
       y="93.345001"
       textLength="8.3278999"
       font-size="1.6933px"
       lengthAdjust="spacingAndGlyphs"
       text-anchor="middle"
       opacity="0"
       stroke-opacity="0"
       id="text63">Resistor</text>
    <g
       class="stroked-text"
       id="g72">
      <desc
         id="desc63">Resistor</desc>
      <path
         style="fill:#c4a7e7;fill-opacity:1;fill-rule:evenodd;stroke:none"
         d="m 119.5128,92.0131 0.0796,0.0193 0.066,0.0302 0.0546,0.0407 0.0445,0.0517 0.0324,0.0617 0.0204,0.0737 0.007,0.0885 -0.007,0.087 -0.0183,0.0737 -0.0291,0.0626 -0.0409,0.0548 -0.0513,0.0441 -0.063,0.0341 0.2542,0.5019 h -0.2082 l -0.223,-0.4666 h -0.0147 -0.243 v 0.4666 h -0.1804 v -0.6316 h 0.1804 0.243 l 0.0667,-0.0067 0.0526,-0.0186 0.0416,-0.0294 0.0312,-0.0399 0.0195,-0.0503 0.007,-0.0635 -0.007,-0.0702 -0.0196,-0.0545 -0.031,-0.0425 -0.0419,-0.0317 -0.0526,-0.0198 -0.0664,-0.0072 h -0.243 v 0.4343 h -0.1804 v -0.5993 h 0.4234 z"
         id="path64" />
      <path
         style="fill:#c4a7e7;fill-opacity:1;fill-rule:evenodd;stroke:none"
         d="m 120.5292,92.3093 0.077,0.022 0.0647,0.0349 0.0545,0.0481 0.0423,0.0586 0.0318,0.0722 0.0205,0.0885 0.007,0.1084 -0.005,0.1179 h -0.6212 l 0.0237,0.0721 0.0364,0.0572 0.0492,0.0448 0.0594,0.0316 0.0735,0.0202 0.0909,0.0073 0.1128,-0.0065 0.1128,-0.0177 0.0225,0.1612 -0.0801,0.0131 -0.0691,0.0069 -0.1197,0.0043 -0.1175,-0.0087 -0.0974,-0.0244 -0.081,-0.0384 -0.0672,-0.0519 -0.054,-0.0654 -0.0397,-0.0789 -0.0252,-0.0953 -0.009,-0.1151 0.004,-0.0566 h 0.1679 0.4667 l -0.007,-0.0808 -0.0202,-0.0621 -0.0314,-0.0476 -0.0433,-0.0363 -0.0534,-0.0222 -0.0664,-0.0079 -0.0683,0.0079 -0.0557,0.0224 -0.046,0.0366 -0.035,0.0481 -0.0253,0.0621 -0.0143,0.0798 h -0.1679 l 0.004,-0.0566 0.0216,-0.094 0.0338,-0.0781 0.0453,-0.0647 0.0583,-0.0535 0.0689,-0.0386 0.0816,-0.0241 0.0974,-0.0086 z"
         id="path65" />
      <path
         style="fill:#c4a7e7;fill-opacity:1;fill-rule:evenodd;stroke:none"
         d="m 121.4033,93.2544 -0.1783,-0.0061 -0.0724,-0.0082 -0.0633,-0.0117 0.0208,-0.1668 0.1609,0.0209 0.1323,0.0069 0.0941,-0.0038 0.0652,-0.0098 0.0433,-0.0136 0.0361,-0.0228 0.02,-0.0285 0.007,-0.0358 -0.006,-0.0376 -0.0161,-0.0243 -0.0261,-0.0171 -0.042,-0.0145 -0.2117,-0.0537 -0.09,-0.0275 -0.0649,-0.0288 -0.0451,-0.0294 -0.0344,-0.0383 -0.0216,-0.0504 -0.008,-0.0663 0.008,-0.0728 0.022,-0.0588 0.0355,-0.0478 0.0504,-0.0387 0.0574,-0.0263 0.0779,-0.0213 0.1034,-0.0145 0.1349,-0.0055 0.1251,0.0044 0.1178,0.013 -0.0191,0.1598 -0.1241,-0.0095 -0.1049,-0.0027 -0.1042,0.0038 -0.072,0.0095 -0.0476,0.0132 -0.0403,0.0227 -0.0218,0.0281 -0.007,0.0353 0.007,0.035 0.0212,0.0226 0.0328,0.0157 0.0548,0.0168 0.17,0.0415 0.0954,0.0283 0.0688,0.0313 0.048,0.033 0.0363,0.043 0.0227,0.055 0.008,0.0708 -0.007,0.072 -0.0209,0.058 -0.0333,0.0472 -0.0469,0.038 -0.054,0.0263 -0.0728,0.0211 -0.0961,0.0144 z"
         id="path66" />
      <path
         style="fill:#c4a7e7;fill-opacity:1;fill-rule:evenodd;stroke:none"
         d="m 122.1337,93.2371 v -0.1613 h 0.3505 v -0.5956 h -0.2984 v -0.1613 h 0.4824 v 0.7569 h 0.2828 v 0.1613 z"
         id="path67" />
      <path
         style="fill:#c4a7e7;fill-opacity:1;fill-rule:evenodd;stroke:none"
         d="m 122.5701,92.1762 -0.0337,-0.0042 -0.0299,-0.0125 -0.0271,-0.0211 -0.021,-0.027 -0.0124,-0.0299 -0.004,-0.0337 0.004,-0.0343 0.0124,-0.03 0.021,-0.0268 0.0416,-0.028 0.0491,-0.0093 0.0343,0.0042 0.03,0.0123 0.0268,0.0208 0.0208,0.0267 0.0123,0.03 0.004,0.0344 -0.009,0.0491 -0.028,0.0415 -0.0268,0.0211 -0.03,0.0124 z"
         id="path68" />
      <path
         style="fill:#c4a7e7;fill-opacity:1;fill-rule:evenodd;stroke:none"
         d="m 123.4853,93.2544 -0.1783,-0.0061 -0.0724,-0.0082 -0.0634,-0.0117 0.0209,-0.1668 0.1609,0.0209 0.1323,0.0069 0.0941,-0.0038 0.0651,-0.0098 0.0434,-0.0136 0.036,-0.0228 0.0201,-0.0285 0.007,-0.0358 -0.006,-0.0376 -0.0162,-0.0243 -0.026,-0.0171 -0.042,-0.0145 -0.2117,-0.0537 -0.09,-0.0275 -0.0649,-0.0288 -0.0451,-0.0294 -0.0345,-0.0383 -0.0215,-0.0504 -0.008,-0.0663 0.008,-0.0728 0.022,-0.0588 0.0355,-0.0478 0.0504,-0.0387 0.0574,-0.0263 0.0779,-0.0213 0.1034,-0.0145 0.1348,-0.0055 0.1252,0.0044 0.1178,0.013 -0.0192,0.1598 -0.124,-0.0095 -0.105,-0.0027 -0.1041,0.0038 -0.072,0.0095 -0.0477,0.0132 -0.0402,0.0227 -0.0219,0.0281 -0.007,0.0353 0.007,0.035 0.0212,0.0226 0.0328,0.0157 0.0548,0.0168 0.17,0.0415 0.0953,0.0283 0.0689,0.0313 0.0479,0.033 0.0364,0.043 0.0227,0.055 0.008,0.0708 -0.007,0.072 -0.0208,0.058 -0.0333,0.0472 -0.0469,0.038 -0.054,0.0263 -0.0728,0.0211 -0.0961,0.0144 z"
         id="path69" />
      <path
         style="fill:#c4a7e7;fill-opacity:1;fill-rule:evenodd;stroke:none"
         d="m 124.7641,93.2544 -0.1071,-0.0066 -0.0831,-0.018 -0.0638,-0.0271 -0.0485,-0.0349 -0.0383,-0.0459 -0.029,-0.0593 -0.0189,-0.0757 -0.007,-0.0962 v -0.4105 h -0.2308 v -0.1613 h 0.2308 V 92.041 h 0.184 v 0.2779 h 0.4181 v 0.1613 h -0.4181 v 0.4015 l 0.007,0.0707 0.0183,0.0512 0.0281,0.0365 0.0388,0.0254 0.0565,0.0173 0.0803,0.0066 0.092,-0.0047 0.1111,-0.0127 0.0208,0.1616 -0.1184,0.0156 z"
         id="path70" />
      <path
         style="fill:#c4a7e7;fill-opacity:1;fill-rule:evenodd;stroke:none"
         d="m 125.7327,92.31 0.0791,0.0239 0.0669,0.0385 0.0569,0.0534 0.0438,0.0644 0.0329,0.0781 0.0211,0.0948 0.008,0.1149 -0.008,0.1143 -0.0211,0.0946 -0.0328,0.0782 -0.0439,0.0646 -0.0569,0.0537 -0.067,0.0385 -0.0791,0.024 -0.0941,0.0085 -0.0938,-0.0084 -0.0789,-0.024 -0.067,-0.0386 -0.0571,-0.0537 -0.044,-0.0646 -0.033,-0.0782 -0.0212,-0.0946 -0.008,-0.1143 h 0.1909 l 0.007,0.0981 0.0191,0.0751 0.0288,0.0569 0.0308,0.0359 0.0356,0.0249 0.0414,0.0152 0.0489,0.0053 0.0488,-0.0053 0.0414,-0.0152 0.0355,-0.0249 0.0308,-0.0359 0.0289,-0.0569 0.0191,-0.0751 0.007,-0.0981 -0.007,-0.0987 -0.0192,-0.0752 -0.0288,-0.0567 -0.0307,-0.0356 -0.0356,-0.0248 -0.0414,-0.0152 -0.0488,-0.0053 -0.0489,0.0053 -0.0414,0.0152 -0.0356,0.0248 -0.0308,0.0356 -0.0288,0.0567 -0.0191,0.0752 -0.007,0.0987 h -0.1909 l 0.008,-0.1148 0.0212,-0.0948 0.033,-0.0782 0.044,-0.0644 0.0571,-0.0535 0.067,-0.0384 0.0789,-0.0239 0.0938,-0.0085 z"
         id="path71" />
      <path
         style="fill:#c4a7e7;fill-opacity:1;fill-rule:evenodd;stroke:none"
         d="m 126.617,92.8421 v 0.2337 h 0.2256 v 0.1613 h -0.6143 v -0.1613 h 0.2047 v -0.5956 h -0.17 v -0.1613 h 0.3193 l 0.0312,0.236 h 0.0208 l 0.0128,-0.0828 0.0247,-0.0623 0.035,-0.0463 0.0459,-0.0332 0.059,-0.0211 0.076,-0.0077 0.0709,0.0059 0.0561,0.0163 0.0445,0.0253 0.0349,0.0342 0.0255,0.0416 0.0202,0.0554 0.0135,0.0727 0.005,0.0941 h -0.1821 l -0.004,-0.0671 -0.0106,-0.0465 -0.0152,-0.0313 -0.0232,-0.0239 -0.0313,-0.0149 -0.0422,-0.0054 -0.0559,0.0065 -0.0466,0.0185 -0.0392,0.0306 -0.0331,0.0443 -0.03,0.0693 -0.0202,0.0927 z"
         id="path72" />
    </g>
  </g>
  <g
     style="fill:none;stroke:#c4a7e7;stroke-width:0.1524;stroke-linecap:round;stroke-linejoin:round;stroke-opacity:1"
     id="g78"
     transform="translate(-102.58824,-86.7918)">
    <path
       d="M 116.84,90.17 V 88.9"
       id="path73" />
    <path
       d="m 116.84,95.25 v 1.27"
       id="path74" />
    <text
       x="122.2114"
       y="88.2649"
       textLength="3.1229"
       font-size="1.6933px"
       lengthAdjust="spacingAndGlyphs"
       text-anchor="middle"
       opacity="0"
       stroke-opacity="0"
       id="text74">VCC</text>
    <g
       class="stroked-text"
       id="g77">
      <desc
         id="desc74">VCC</desc>
      <path
         style="fill:#c4a7e7;fill-opacity:1;fill-rule:evenodd;stroke:none"
         d="m 121.036,88.157 -0.347,-1.2309 h 0.1857 l 0.288,1.0844 h 0.0156 l 0.288,-1.0844 h 0.1857 l -0.347,1.2309 z"
         id="path75" />
      <path
         style="fill:#c4a7e7;fill-opacity:1;fill-rule:evenodd;stroke:none"
         d="m 122.3399,88.1743 -0.1268,-0.0087 -0.1057,-0.0244 -0.0881,-0.0382 -0.0735,-0.0514 -0.0609,-0.0651 -0.0491,-0.0805 -0.0374,-0.0988 -0.0241,-0.1206 -0.009,-0.1468 0.007,-0.1232 0.0189,-0.1059 0.0298,-0.0911 0.0398,-0.0784 0.0496,-0.0673 0.0612,-0.0582 0.0699,-0.0455 0.08,-0.0333 0.0918,-0.0208 0.1058,-0.0073 0.0842,0.0048 0.0735,0.0138 0.0643,0.0218 0.0591,0.0319 0.0453,0.0384 0.0336,0.045 -0.1284,0.1275 -0.0446,-0.0525 -0.0548,-0.0386 -0.0625,-0.024 -0.068,-0.0081 -0.0814,0.0079 -0.0706,0.0227 -0.0619,0.0371 -0.0547,0.0527 -0.0419,0.0622 -0.0315,0.0758 -0.0203,0.0921 -0.007,0.1118 0.008,0.1255 0.0224,0.1002 0.0342,0.0796 0.0449,0.0627 0.0557,0.0486 0.0681,0.0357 0.0832,0.0227 0.1016,0.0082 0.0828,-0.0057 0.0825,-0.0172 0.0828,-0.0292 0.0399,0.153 -0.1021,0.0327 -0.1055,0.0198 z"
         id="path76" />
      <path
         style="fill:#c4a7e7;fill-opacity:1;fill-rule:evenodd;stroke:none"
         d="m 123.3808,88.1743 -0.1267,-0.0087 -0.1057,-0.0244 -0.0881,-0.0382 -0.0735,-0.0514 -0.0609,-0.0651 -0.0492,-0.0805 -0.0373,-0.0988 -0.0241,-0.1206 -0.009,-0.1468 0.007,-0.1232 0.019,-0.1059 0.0298,-0.0911 0.0398,-0.0784 0.0496,-0.0673 0.0612,-0.0582 0.0699,-0.0455 0.08,-0.0333 0.0918,-0.0208 0.1058,-0.0073 0.0842,0.0048 0.0735,0.0138 0.0643,0.0218 0.0591,0.0319 0.0453,0.0384 0.0336,0.045 -0.1284,0.1275 -0.0446,-0.0525 -0.0548,-0.0386 -0.0625,-0.024 -0.068,-0.0081 -0.0814,0.0079 -0.0706,0.0227 -0.0619,0.0371 -0.0547,0.0527 -0.0419,0.0622 -0.0315,0.0758 -0.0203,0.0921 -0.007,0.1118 0.008,0.1255 0.0224,0.1002 0.0342,0.0796 0.0448,0.0627 0.0558,0.0486 0.0681,0.0357 0.0831,0.0227 0.1017,0.0082 0.0828,-0.0057 0.0825,-0.0172 0.0828,-0.0292 0.0399,0.153 -0.1021,0.0327 -0.1055,0.0198 z"
         id="path77" />
    </g>
  </g>
  <g
     style="fill:none;stroke:#c4a7e7;stroke-width:0.1524;stroke-linecap:round;stroke-linejoin:round;stroke-opacity:1"
     id="g82"
     transform="translate(-102.58824,-86.7918)">
    <path
       d="m 116.84,87.63 v 0"
       id="path78" />
    <text
       x="104.14"
       y="104.775"
       textLength="3.1229"
       font-size="1.6933px"
       lengthAdjust="spacingAndGlyphs"
       text-anchor="middle"
       opacity="0"
       stroke-opacity="0"
       id="text78">GND</text>
    <g
       class="stroked-text"
       id="g81">
      <desc
         id="desc78">GND</desc>
      <path
         style="fill:#c4a7e7;fill-opacity:1;fill-rule:evenodd;stroke:none"
         d="m 103.1876,104.6844 -0.1207,-0.008 -0.1008,-0.024 -0.0844,-0.0376 -0.0707,-0.0508 -0.0589,-0.0647 -0.0477,-0.0804 -0.0364,-0.099 -0.0237,-0.1214 -0.008,-0.1481 0.007,-0.1233 0.0188,-0.106 0.0294,-0.0911 0.0394,-0.0783 0.0489,-0.0672 0.0606,-0.0584 0.069,-0.0455 0.0786,-0.0332 0.09,-0.0208 0.1035,-0.007 0.0855,0.005 0.075,0.0137 0.066,0.0219 0.0609,0.0319 0.0471,0.0381 0.0351,0.0444 -0.1293,0.1284 -0.0452,-0.0525 -0.055,-0.0386 -0.0624,-0.024 -0.0673,-0.008 -0.0856,0.008 -0.0723,0.0231 -0.0616,0.0373 -0.0528,0.0523 -0.0403,0.0622 -0.0303,0.0757 -0.0196,0.092 -0.007,0.1116 0.008,0.1277 0.0214,0.1013 0.0324,0.0798 0.0423,0.0622 0.052,0.0477 0.0628,0.0347 0.0759,0.0219 0.0923,0.008 0.0768,-0.004 0.0672,-0.0112 v -0.2934 h -0.2447 v -0.165 h 0.4165 v 0.5819 l -0.128,0.0317 -0.0949,0.015 z"
         id="path79" />
      <path
         style="fill:#c4a7e7;fill-opacity:1;fill-rule:evenodd;stroke:none"
         d="m 104.2997,104.6671 -0.3539,-0.9371 h -0.0174 v 0.9371 h -0.1804 v -1.2309 h 0.2324 l 0.354,0.9369 h 0.0173 v -0.9369 h 0.1805 v 1.2309 z"
         id="path80" />
      <path
         style="fill:#c4a7e7;fill-opacity:1;fill-rule:evenodd;stroke:none"
         d="m 105.2045,103.4449 0.1035,0.0241 0.0864,0.0379 0.0722,0.051 0.0599,0.0648 0.0485,0.0802 0.0368,0.0986 0.0239,0.1206 0.009,0.1469 -0.008,0.1371 -0.0233,0.1129 -0.0361,0.0928 -0.0478,0.0761 -0.0593,0.0617 -0.0721,0.049 -0.0868,0.0366 -0.1044,0.0235 -0.1257,0.008 h -0.2985 v -0.1651 h 0.1804 0.1181 l 0.0931,-0.007 0.0761,-0.0205 0.0622,-0.0322 0.0508,-0.0437 0.0408,-0.0563 0.031,-0.0713 0.0203,-0.0896 0.007,-0.1121 -0.008,-0.123 -0.0209,-0.0978 -0.0318,-0.0772 -0.0415,-0.0604 -0.0512,-0.0463 -0.062,-0.0339 -0.0752,-0.0214 -0.0914,-0.008 h -0.1181 v 0.9008 h -0.1804 v -1.0658 h 0.2985 z"
         id="path81" />
    </g>
  </g>
  <g
     style="fill:none;stroke:#c4a7e7;stroke-width:0.1524;stroke-linecap:round;stroke-linejoin:round;stroke-opacity:1"
     id="g90"
     transform="translate(-102.58824,-86.7918)">
    <path
       d="m 104.14,99.06 v 0"
       id="path82" />
    <text
       x="110.49"
       y="94.361"
       textLength="6.2459002"
       font-size="1.6933px"
       lengthAdjust="spacingAndGlyphs"
       text-anchor="middle"
       opacity="0"
       stroke-opacity="0"
       id="text82">Switch</text>
    <g
       class="stroked-text"
       id="g89">
      <desc
         id="desc82">Switch</desc>
      <path
         style="fill:#c4a7e7;fill-opacity:1;fill-rule:evenodd;stroke:none"
         d="m 107.8451,94.2704 -0.1387,-0.0081 -0.1213,-0.0231 -0.1061,-0.0366 0.0225,-0.1755 0.0953,0.0364 0.089,0.0256 0.0887,0.0161 0.0844,0.0052 0.0832,-0.0064 0.0601,-0.0167 0.0427,-0.0246 0.0292,-0.032 0.0179,-0.0404 0.006,-0.0515 -0.007,-0.0512 -0.0203,-0.0427 -0.0342,-0.0364 -0.0513,-0.0308 -0.2134,-0.0971 -0.0808,-0.0428 -0.0635,-0.046 -0.0488,-0.0489 -0.0368,-0.057 -0.0225,-0.0659 -0.008,-0.0773 0.007,-0.0796 0.0189,-0.0667 0.0301,-0.056 0.0415,-0.0471 0.0507,-0.037 0.0612,-0.0276 0.0739,-0.0175 0.0892,-0.0063 0.0822,0.0043 0.0727,0.0124 0.0646,0.0198 0.0612,0.0285 0.0612,0.0394 0.0615,0.0513 -0.1214,0.1232 -0.0768,-0.0557 -0.066,-0.035 -0.0677,-0.0211 -0.0706,-0.0071 -0.0581,0.0054 -0.0452,0.0146 -0.0351,0.0229 -0.0264,0.0317 -0.0166,0.0413 -0.006,0.0539 0.008,0.0555 0.0237,0.042 0.0376,0.0342 0.057,0.033 0.1804,0.0848 0.0887,0.0474 0.0683,0.0483 0.0512,0.049 0.0388,0.0574 0.0239,0.068 0.008,0.0817 -0.007,0.0787 -0.0195,0.0652 -0.0309,0.0542 -0.0428,0.0451 -0.0563,0.0369 -0.0727,0.0286 -0.0926,0.0188 z"
         id="path83" />
      <path
         style="fill:#c4a7e7;fill-opacity:1;fill-rule:evenodd;stroke:none"
         d="m 109.0327,94.2531 -0.1076,-0.7305 h -0.0104 l -0.1076,0.7305 h -0.2342 l -0.1041,-0.9182 h 0.1735 l 0.0694,0.7808 h 0.0156 l 0.1084,-0.7808 h 0.1684 l 0.1084,0.7808 h 0.0156 l 0.0781,-0.7808 h 0.1822 l -0.1301,0.9182 z"
         id="path84" />
      <path
         style="fill:#c4a7e7;fill-opacity:1;fill-rule:evenodd;stroke:none"
         d="m 109.5878,94.2531 v -0.1613 h 0.3506 v -0.5956 h -0.2985 v -0.1613 h 0.4824 v 0.7569 h 0.2828 v 0.1613 z"
         id="path85" />
      <path
         style="fill:#c4a7e7;fill-opacity:1;fill-rule:evenodd;stroke:none"
         d="m 110.0242,93.1922 -0.0337,-0.0042 -0.0299,-0.0125 -0.0271,-0.0211 -0.021,-0.027 -0.0124,-0.0299 -0.004,-0.0337 0.004,-0.0343 0.0125,-0.03 0.0209,-0.0268 0.0416,-0.028 0.0491,-0.0093 0.0343,0.0042 0.0301,0.0123 0.0267,0.0208 0.0208,0.0267 0.0123,0.03 0.004,0.0344 -0.009,0.0491 -0.028,0.0415 -0.0268,0.0211 -0.03,0.0124 z"
         id="path86" />
      <path
         style="fill:#c4a7e7;fill-opacity:1;fill-rule:evenodd;stroke:none"
         d="m 111.1772,94.2704 -0.107,-0.0066 -0.0831,-0.018 -0.0639,-0.0271 -0.0485,-0.0349 -0.0383,-0.0459 -0.029,-0.0593 -0.0189,-0.0757 -0.007,-0.0962 v -0.4105 h -0.2308 v -0.1613 h 0.2308 V 93.057 h 0.184 v 0.2779 h 0.4181 v 0.1613 h -0.4181 v 0.4015 l 0.007,0.0707 0.0184,0.0512 0.028,0.0365 0.0389,0.0254 0.0565,0.0173 0.0803,0.0066 0.0919,-0.0047 0.1111,-0.0127 0.0208,0.1616 -0.1184,0.0156 z"
         id="path87" />
      <path
         style="fill:#c4a7e7;fill-opacity:1;fill-rule:evenodd;stroke:none"
         d="m 112.1401,94.2704 -0.1175,-0.0087 -0.0975,-0.0244 -0.0809,-0.0384 -0.0672,-0.0519 -0.054,-0.0654 -0.0397,-0.0789 -0.0252,-0.0953 -0.009,-0.1151 0.008,-0.1124 0.0239,-0.0937 0.0376,-0.0783 0.051,-0.0656 0.0641,-0.0527 0.0771,-0.0387 0.0927,-0.0246 0.1118,-0.0088 0.0885,0.006 0.0762,0.017 0.0656,0.027 0.0588,0.0386 0.045,0.0468 0.033,0.0557 -0.1415,0.1067 -0.0448,-0.0565 -0.055,-0.0415 -0.0633,-0.026 -0.0694,-0.0088 -0.0643,0.0054 -0.0539,0.0153 -0.0455,0.0242 -0.0384,0.0335 -0.0301,0.0408 -0.0224,0.0495 -0.0144,0.0599 -0.005,0.0725 0.006,0.0781 0.0167,0.0644 0.0263,0.053 0.0355,0.0437 0.0445,0.0347 0.0538,0.0257 0.0649,0.0163 0.0785,0.0059 0.1284,-0.006 0.1249,-0.0166 0.0208,0.1616 -0.0719,0.013 -0.0751,0.0078 z"
         id="path88" />
      <path
         style="fill:#c4a7e7;fill-opacity:1;fill-rule:evenodd;stroke:none"
         d="m 113.2834,94.2531 v -0.5974 l -0.005,-0.0568 -0.0148,-0.0439 -0.0232,-0.0339 -0.0317,-0.0257 -0.0397,-0.0159 -0.05,-0.0056 -0.0673,0.0075 -0.0519,0.0209 -0.04,0.0332 -0.0302,0.0474 -0.02,0.0653 -0.007,0.0889 v 0.516 h -0.1839 v -1.3004 h 0.1839 v 0.5488 h 0.0173 l 0.0112,-0.0566 0.0216,-0.044 0.0318,-0.0343 0.0434,-0.0258 0.058,-0.017 0.077,-0.0063 0.072,0.0061 0.0602,0.0172 0.0506,0.0274 0.0427,0.0377 0.0334,0.0461 0.0249,0.0555 0.0159,0.067 0.006,0.0808 v 0.5978 z"
         id="path89" />
    </g>
  </g>
  <g
     style="fill:none;stroke:#c4a7e7;stroke-width:0.1524;stroke-linecap:round;stroke-linejoin:round;stroke-opacity:1"
     id="g91"
     transform="translate(-102.58824,-86.7918)">
    <path
       d="m 107.95,97.79 h -2.54"
       id="path90" />
    <path
       d="m 113.03,97.79 h 2.54"
       id="path91" />
  </g>
  <g
     style="fill:#c4a7e7;fill-opacity:1;stroke:#c4a7e7;stroke-width:0.1524;stroke-linecap:round;stroke-linejoin:round;stroke-opacity:1"
     id="g92"
     transform="translate(-102.58824,-86.7918)">
    <circle
       cx="116.84"
       cy="97.790001"
       r="0.45719999"
       id="circle91" />
  </g>
  <metadata
     id="metadata92">
    <rdf:RDF>
      <cc:Work
         rdf:about="">
        <dc:title>SVG Image created as pull-up-resistor.svg date 2025/12/25 10:30:00 </dc:title>
      </cc:Work>
    </rdf:RDF>
  </metadata>
</svg>
